<svg width="256" height="256" viewBox="0 0 256 256" xmlns="http://www.w3.org/2000/svg">
  <defs>
    <linearGradient id="gradient1" x1="0%" y1="0%" x2="100%" y2="100%">
      <stop offset="0%" style="stop-color:#667eea;stop-opacity:1" />
      <stop offset="100%" style="stop-color:#764ba2;stop-opacity:1" />
    </linearGradient>
    <linearGradient id="gradient2" x1="0%" y1="0%" x2="100%" y2="100%">
      <stop offset="0%" style="stop-color:#27ae60;stop-opacity:1" />
      <stop offset="100%" style="stop-color:#2ecc71;stop-opacity:1" />
    </linearGradient>
  </defs>
  
  <!-- Background circle -->
  <circle cx="128" cy="128" r="120" fill="url(#gradient1)" stroke="#fff" stroke-width="8"/>
  
  <!-- Book icon -->
  <rect x="80" y="90" width="96" height="76" rx="8" fill="#fff" opacity="0.9"/>
  <rect x="88" y="98" width="80" height="60" rx="4" fill="url(#gradient2)"/>
  
  <!-- Book pages -->
  <line x1="128" y1="98" x2="128" y2="158" stroke="#fff" stroke-width="2" opacity="0.7"/>
  <line x1="108" y1="110" x2="148" y2="110" stroke="#fff" stroke-width="1.5" opacity="0.6"/>
  <line x1="108" y1="120" x2="148" y2="120" stroke="#fff" stroke-width="1.5" opacity="0.6"/>
  <line x1="108" y1="130" x2="148" y2="130" stroke="#fff" stroke-width="1.5" opacity="0.6"/>
  <line x1="108" y1="140" x2="148" y2="140" stroke="#fff" stroke-width="1.5" opacity="0.6"/>
  
  <!-- AI Brain icon -->
  <circle cx="190" cy="80" r="24" fill="#fff" opacity="0.95"/>
  <circle cx="190" cy="80" r="18" fill="url(#gradient1)"/>
  
  <!-- Brain pattern -->
  <path d="M182 75 Q190 70 198 75 Q195 80 190 82 Q185 80 182 75" fill="#fff" opacity="0.8"/>
  <path d="M182 85 Q190 80 198 85 Q195 90 190 88 Q185 90 182 85" fill="#fff" opacity="0.8"/>
  <circle cx="186" cy="76" r="1.5" fill="#fff"/>
  <circle cx="194" cy="76" r="1.5" fill="#fff"/>
  <circle cx="186" cy="84" r="1.5" fill="#fff"/>
  <circle cx="194" cy="84" r="1.5" fill="#fff"/>
  
  <!-- Sparkles/Magic effect -->
  <g fill="#fff" opacity="0.8">
    <polygon points="70,60 72,66 78,64 72,70 70,76 68,70 62,64 68,66" transform="rotate(15 70 68)"/>
    <polygon points="200,180 201,184 205,183 201,187 200,191 199,187 195,183 199,184" transform="rotate(-15 200 185)"/>
    <polygon points="50,140 51,143 54,142 51,145 50,148 49,145 46,142 49,143" transform="rotate(30 50 145)"/>
  </g>
  
  <!-- Text 'AI' -->
  <text x="128" y="200" font-family="Arial, sans-serif" font-size="24" font-weight="bold" text-anchor="middle" fill="#fff">AI</text>
</svg>